<svg width="14" height="15" viewBox="0 0 14 15" fill="none" xmlns="http://www.w3.org/2000/svg">
<path d="M12.25 1H1.75C1.33579 1 1 1.33579 1 1.75V2.93934C1 3.13825 1.07902 3.32902 1.21967 3.46967L5.28033 7.53033C5.42098 7.67098 5.5 7.86175 5.5 8.06066V12.5365C5.5 13.094 6.08673 13.4566 6.58541 13.2073L8.08541 12.4573C8.3395 12.3303 8.5 12.0706 8.5 11.7865V8.06066C8.5 7.86175 8.57902 7.67098 8.71967 7.53033L12.7803 3.46967C12.921 3.32902 13 3.13825 13 2.93934V1.75C13 1.33579 12.6642 1 12.25 1Z" stroke="#091932" stroke-width="2" stroke-linecap="round" stroke-linejoin="round"/>
</svg>
