<svg width="9" height="14" viewBox="0 0 9 14" fill="none" xmlns="http://www.w3.org/2000/svg">
<path d="M2.4214 0.578645C2.03088 0.18812 1.39771 0.18812 1.00719 0.578645C0.616663 0.969169 0.616663 1.60233 1.00719 1.99286L2.4214 0.578645ZM7.42858 7.00004L8.13569 7.70714C8.52621 7.31662 8.52621 6.68345 8.13569 6.29293L7.42858 7.00004ZM1.00719 12.0072C0.616663 12.3977 0.616663 13.0309 1.00719 13.4214C1.39771 13.812 2.03088 13.812 2.4214 13.4214L1.00719 12.0072ZM1.00719 1.99286L6.72147 7.70714L8.13569 6.29293L2.4214 0.578645L1.00719 1.99286ZM6.72147 6.29293L1.00719 12.0072L2.4214 13.4214L8.13569 7.70714L6.72147 6.29293Z" fill="#9E9E9E"/>
</svg>
