<svg width="10" height="10" viewBox="0 0 10 10" fill="none" xmlns="http://www.w3.org/2000/svg">
<path d="M9.31034 4.31034H5.68966V0.689655C5.68966 0.310345 5.37931 0 5 0C4.62069 0 4.31034 0.310345 4.31034 0.689655V4.31034H0.689655C0.310345 4.31034 0 4.62069 0 5C0 5.37931 0.310345 5.68966 0.689655 5.68966H4.31034V9.31034C4.31034 9.68966 4.62069 10 5 10C5.37931 10 5.68966 9.68966 5.68966 9.31034V5.68966H9.31034C9.68966 5.68966 10 5.37931 10 5C10 4.62069 9.68966 4.31034 9.31034 4.31034Z" fill="white"/>
</svg>
