<svg width="16" height="16" viewBox="0 0 16 16" fill="none" xmlns="http://www.w3.org/2000/svg">
<path d="M7.98831 1.93333C6.51268 1.9331 5.08974 2.47165 3.98621 3.44449L4.09248 3.55078M7.98831 1.93333L4.84418 4.42667C4.82282 4.43464 4.80142 4.44259 4.77997 4.45052L3.98093 3.65135C4.01773 3.61732 4.05492 3.58379 4.09248 3.55078M7.98831 1.93333C11.3483 1.93333 14.0651 4.6456 14.0651 8C14.0651 11.3544 11.3483 14.0667 7.98831 14.0667V1.93333ZM4.09248 3.55078C5.16763 2.60602 6.55235 2.08311 7.98829 2.08333H7.98831C11.2657 2.08333 13.9151 4.72868 13.9151 8C13.9151 11.2713 11.2657 13.9167 7.98831 13.9167H7.98823C6.49554 13.9175 5.05772 13.3551 3.9629 12.3423C2.86808 11.3295 2.19715 9.94107 2.08446 8.45532L2.07395 8.31667H1.93489H1H0.839867L0.85032 8.47646C0.968695 10.2859 1.77236 11.9826 3.09808 13.222C4.42378 14.4614 6.17218 15.1507 7.98831 15.15H7.98837C11.9479 15.15 15.15 11.9536 15.15 8C15.15 4.04639 11.9479 0.85 7.98831 0.85C6.15152 0.85 4.48262 1.54342 3.21575 2.67613L2.35878 1.81976L2.19168 1.65278L2.11163 1.87504C1.89064 2.4886 1.68829 3.10869 1.50487 3.73448L1.50474 3.73491C1.32269 4.36307 1.15652 4.99571 1.00639 5.63223L0.951406 5.86537L1.18515 5.81304C1.81384 5.67232 2.44878 5.50821 3.09181 5.32265L3.09249 5.32245C3.74062 5.13209 4.36014 4.92751 4.94907 4.70773L5.16769 4.62615L5.0027 4.46114L4.09248 3.55078ZM7.52087 3.65H7.37087V3.8V8.65987V8.72205L7.41487 8.766L9.65487 11.0032L9.76085 11.109L9.86685 11.0032L10.5287 10.3424L10.6351 10.2362L10.5287 10.1301L8.60576 8.21124V3.8V3.65H8.45576H7.52087Z" fill="#9E9E9E" stroke="#9E9E9E" stroke-width="0.3"/>
</svg>
