<svg width="20" height="20" viewBox="0 0 20 20" fill="none" xmlns="http://www.w3.org/2000/svg">
<path d="M17.5 15.8333H7.5M2.5 4.16666H5.83333H2.5ZM17.5 4.16666H9.16667H17.5ZM2.5 9.99999H12.5H2.5ZM17.5 9.99999H15.8333H17.5ZM2.5 15.8333H4.16667H2.5Z" stroke="#9E9E9E" stroke-width="2" stroke-linecap="round"/>
<path d="M7.49967 5.83333C8.42015 5.83333 9.16634 5.08714 9.16634 4.16667C9.16634 3.24619 8.42015 2.5 7.49967 2.5C6.5792 2.5 5.83301 3.24619 5.83301 4.16667C5.83301 5.08714 6.5792 5.83333 7.49967 5.83333Z" stroke="#9E9E9E" stroke-width="2" stroke-linecap="round"/>
<path d="M14.1667 11.6667C15.0871 11.6667 15.8333 10.9205 15.8333 10C15.8333 9.07954 15.0871 8.33334 14.1667 8.33334C13.2462 8.33334 12.5 9.07954 12.5 10C12.5 10.9205 13.2462 11.6667 14.1667 11.6667Z" stroke="#9E9E9E" stroke-width="2" stroke-linecap="round"/>
<path d="M5.83366 17.5C6.75413 17.5 7.50033 16.7538 7.50033 15.8333C7.50033 14.9128 6.75413 14.1667 5.83366 14.1667C4.91318 14.1667 4.16699 14.9128 4.16699 15.8333C4.16699 16.7538 4.91318 17.5 5.83366 17.5Z" stroke="#9E9E9E" stroke-width="2" stroke-linecap="round"/>
</svg>
