<svg width="19" height="17" viewBox="0 0 19 17" fill="none" xmlns="http://www.w3.org/2000/svg">
<path d="M9.41796 15.6579L8.94075 16.5367C9.23837 16.6983 9.59755 16.6983 9.89517 16.5367L9.41796 15.6579ZM9.41796 4.60958L8.50125 5.00914C8.6602 5.37381 9.02016 5.60958 9.41796 5.60958C9.81576 5.60958 10.1757 5.37381 10.3347 5.00914L9.41796 4.60958ZM0.473877 6.1674C0.473877 7.72001 1.06852 9.15039 1.87964 10.3837C2.69176 11.6185 3.75643 12.7107 4.79005 13.6088C5.82738 14.5101 6.8599 15.2385 7.63075 15.7408C8.01717 15.9926 8.34033 16.1892 8.56874 16.3239C8.683 16.3912 8.77373 16.4432 8.837 16.4789C8.86864 16.4968 8.89343 16.5106 8.91088 16.5203C8.91961 16.5251 8.9265 16.5289 8.9315 16.5316C8.934 16.533 8.93602 16.5341 8.93757 16.535C8.93834 16.5354 8.93899 16.5357 8.93952 16.536C8.93979 16.5362 8.9401 16.5363 8.94023 16.5364C8.94051 16.5366 8.94075 16.5367 9.41796 15.6579C9.89517 14.7791 9.89535 14.7792 9.89551 14.7793C9.89552 14.7793 9.89565 14.7794 9.89567 14.7794C9.89572 14.7794 9.89565 14.7794 9.89546 14.7793C9.89508 14.7791 9.89423 14.7786 9.89291 14.7779C9.89027 14.7764 9.88577 14.774 9.87946 14.7705C9.86685 14.7635 9.84704 14.7524 9.82049 14.7375C9.76739 14.7075 9.68744 14.6617 9.58449 14.601C9.37846 14.4795 9.08098 14.2987 8.72265 14.0652C8.00398 13.5969 7.05048 12.9233 6.10179 12.099C5.14938 11.2715 4.22804 10.3147 3.55064 9.2847C2.87224 8.25322 2.47388 7.20312 2.47388 6.1674H0.473877ZM10.3347 4.21002C9.26358 1.75264 6.83198 0.630065 4.64444 0.938181C3.54394 1.09319 2.48832 1.6126 1.70893 2.51822C0.925385 3.42867 0.473877 4.66734 0.473877 6.1674H2.47388C2.47388 5.07913 2.79471 4.32263 3.22484 3.82283C3.65914 3.3182 4.25854 3.01228 4.92339 2.91863C6.26655 2.72945 7.80698 3.41629 8.50125 5.00914L10.3347 4.21002ZM16.362 6.1674C16.362 7.20312 15.9637 8.25322 15.2853 9.2847C14.6079 10.3147 13.6865 11.2715 12.7341 12.099C11.7854 12.9233 10.8319 13.5969 10.1133 14.0652C9.75494 14.2987 9.45746 14.4795 9.25143 14.601C9.14848 14.6617 9.06853 14.7075 9.01543 14.7375C8.98888 14.7524 8.96907 14.7635 8.95646 14.7705C8.95015 14.774 8.94565 14.7764 8.94301 14.7779C8.94169 14.7786 8.94084 14.7791 8.94046 14.7793C8.94027 14.7794 8.9402 14.7794 8.94025 14.7794C8.94027 14.7794 8.9404 14.7793 8.94041 14.7793C8.94057 14.7792 8.94075 14.7791 9.41796 15.6579C9.89517 16.5367 9.89541 16.5366 9.89569 16.5364C9.89582 16.5363 9.89613 16.5362 9.8964 16.536C9.89693 16.5357 9.89758 16.5354 9.89835 16.535C9.8999 16.5341 9.90192 16.533 9.90442 16.5316C9.90942 16.5289 9.91632 16.5251 9.92504 16.5203C9.94249 16.5106 9.96728 16.4968 9.99892 16.4789C10.0622 16.4432 10.1529 16.3912 10.2672 16.3239C10.4956 16.1892 10.8188 15.9926 11.2052 15.7408C11.976 15.2385 13.0085 14.5101 14.0459 13.6088C15.0795 12.7107 16.1442 11.6185 16.9563 10.3837C17.7674 9.15039 18.362 7.72001 18.362 6.1674H16.362ZM10.3347 5.00914C11.0289 3.41629 12.5694 2.72945 13.9125 2.91863C14.5774 3.01228 15.1768 3.3182 15.6111 3.82283C16.0412 4.32263 16.362 5.07913 16.362 6.1674H18.362C18.362 4.66734 17.9105 3.42867 17.127 2.51822C16.3476 1.6126 15.292 1.09319 14.1915 0.938181C12.0039 0.630065 9.57234 1.75264 8.50125 4.21002L10.3347 5.00914Z" fill="#9E9E9E"/>
</svg>
